<?xml version="1.0" encoding="UTF-8" standalone="no"?>
<svg
   xmlns:dc="http://purl.org/dc/elements/1.1/"
   xmlns:cc="http://creativecommons.org/ns#"
   xmlns:rdf="http://www.w3.org/1999/02/22-rdf-syntax-ns#"
   xmlns:svg="http://www.w3.org/2000/svg"
   xmlns="http://www.w3.org/2000/svg"
   xmlns:sodipodi="http://sodipodi.sourceforge.net/DTD/sodipodi-0.dtd"
   xmlns:inkscape="http://www.inkscape.org/namespaces/inkscape"
   width="1136pt"
   height="564pt"
   viewBox="0 0 1136 564"
   version="1.1"
   id="svg42"
   sodipodi:docname="50lab.svg"
   inkscape:version="1.0.1 (3bc2e813f5, 2020-09-07)">
  <metadata
     id="metadata48">
    <rdf:RDF>
      <cc:Work
         rdf:about="">
        <dc:format>image/svg+xml</dc:format>
        <dc:type
           rdf:resource="http://purl.org/dc/dcmitype/StillImage" />
      </cc:Work>
    </rdf:RDF>
  </metadata>
  <defs
     id="defs46" />
  <sodipodi:namedview
     pagecolor="#ffffff"
     bordercolor="#666666"
     borderopacity="1"
     objecttolerance="10"
     gridtolerance="10"
     guidetolerance="10"
     inkscape:pageopacity="0"
     inkscape:pageshadow="2"
     inkscape:window-width="1920"
     inkscape:window-height="1017"
     id="namedview44"
     showgrid="false"
     inkscape:zoom="0.99716995"
     inkscape:cx="570.14036"
     inkscape:cy="368.61642"
     inkscape:window-x="-8"
     inkscape:window-y="-8"
     inkscape:window-maximized="1"
     inkscape:current-layer="svg42"
     inkscape:document-rotation="0" />
  <g
     id="#fbff00ff"
     style="fill:#ffaa00;fill-opacity:1;stroke:none;stroke-width:10.5998;stroke-miterlimit:4;stroke-dasharray:none;stroke-opacity:1">
    <path
       fill="#fbff00"
       opacity="1"
       d="m 46.67,0 h 168.05 c -0.01,14.42 0,28.84 -0.01,43.26 -40.88,0.4 -81.76,0.39 -122.64,1.22 -9.72,0.33 -19.48,0.39 -29.14,1.65 -2.79,0.47 -6.97,1.02 -7.09,4.66 -2.13,16.95 -2.31,34.07 -3.04,51.12 -1.01,35.87 -2.69,71.71 -3.33,107.58 39.44,0.12 78.91,-0.42 118.33,1.31 9.05,0.53 18.17,0.93 27.09,2.71 5.29,1.02 9.26,5.05 12.64,8.96 3.36,3.82 4.75,8.82 5.9,13.66 3.69,15.69 4.05,31.88 4.69,47.91 1.28,46.3 1,92.63 0.96,138.94 -0.24,28.05 -0.18,56.12 -1.8,84.13 -0.82,11.48 -1.63,23.13 -5.1,34.18 -2.01,7 -7.06,13 -13.45,16.44 -4.17,2.26 -9.03,2.16 -13.61,2.71 -22.29,2.39 -44.74,2 -67.12,2.24 -23.68,0.06 -47.35,0.27 -71.02,-0.05 C 36.12,562.57 24.95,560.84 15.3,555.65 8.76,552.14 5.68,544.83 3.92,538.01 1.68,528.87 1.92,519.37 1.57,510.03 0.89,468.18 1.03,426.31 0.69,384.45 c 2.08,-0.92 4.26,-1.61 6.53,-1.9 13.75,-1.99 27.68,-2.08 41.52,-3.18 0.1,46.66 0.22,93.31 0.41,139.96 39.21,0.01 78.41,0 117.62,0 0.01,-88.63 0.01,-177.26 0,-265.89 C 111.18,253.15 55.59,252.89 0,252.63 v -1.31 C 1.21,213.54 2.37,175.77 3.68,137.99 5.03,92.28 4.72,46.53 5.65,0.81 19.3,-0.09 33,0.42 46.67,0 Z"
       id="path30"
       style="fill:#ffaa00;fill-opacity:1;stroke:none;stroke-width:10.5998;stroke-miterlimit:4;stroke-dasharray:none;stroke-opacity:1" />
    <path
       fill="#fbff00"
       opacity="1"
       d="m 335.87,1.94 c 9.97,-1.21 20.03,-1.28 30.06,-1.36 38.7,-0.27 77.4,-0.12 116.09,0.4 9.62,0.34 19.47,-0.39 28.82,2.39 3.73,1.1 6.71,3.75 9.58,6.25 4.23,3.78 8.37,7.65 12.54,11.49 0.02,173.04 -0.04,346.07 0.03,519.1 -7.75,8.02 -15.9,15.64 -23.51,23.79 h -21.65 c -45.25,-1.28 -90.56,-0.84 -135.82,-1.71 -8.88,-0.2 -18.02,-0.49 -26.37,-3.78 -7.16,-4.82 -12.87,-11.41 -19.08,-17.34 0,-173.05 0,-346.1 0,-519.16 5.31,-5.19 10.56,-10.44 16.1,-15.38 3.6,-3.24 8.59,-4.03 13.21,-4.69 m 18.66,42.34 c -0.27,13.57 -0.16,27.14 -0.22,40.71 -0.17,144.78 0.04,289.56 0.2,434.34 43.5,0 87.01,0.01 130.51,0 0.01,-158.48 0.01,-316.95 0,-475.43 -38.36,-0.06 -76.71,-0.41 -115.07,-0.2 -5.14,0.06 -10.3,0.04 -15.42,0.58 z"
       id="path32"
       style="fill:#ffaa00;fill-opacity:1;stroke:none;stroke-width:10.5998;stroke-miterlimit:4;stroke-dasharray:none;stroke-opacity:1" />
  </g>
  <g
     id="#000000ff">
    <path
       fill="#000000"
       opacity="1.00"
       d=" M 581.76 127.15 C 594.45 126.01 607.24 126.69 619.97 126.51 C 620.05 249.69 619.82 372.88 620.17 496.06 C 620.40 506.75 619.98 517.48 621.03 528.12 C 654.10 528.96 687.19 528.45 720.27 528.54 C 720.46 540.21 720.60 551.88 720.68 563.55 C 674.36 563.32 628.04 562.99 581.71 562.86 C 581.58 453.60 581.41 344.34 581.46 235.08 C 581.53 199.10 581.30 163.12 581.76 127.15 Z"
       id="path35" />
    <path
       fill="#000000"
       opacity="1.00"
       d=" M 983.00 127.08 C 994.22 126.10 1005.51 126.93 1016.77 126.92 C 1017.06 183.86 1017.30 240.80 1017.59 297.74 C 1046.67 294.87 1075.74 291.11 1105.03 290.99 C 1112.65 290.81 1121.87 290.21 1127.36 296.60 C 1132.26 303.67 1132.80 312.64 1133.55 320.94 C 1134.99 344.45 1135.26 368.01 1136.00 391.55 L 1136.00 425.46 C 1135.49 450.12 1134.95 474.79 1134.18 499.44 C 1133.68 509.83 1133.69 520.65 1129.22 530.27 C 1124.56 540.83 1116.35 550.02 1105.65 554.63 C 1092.94 560.49 1078.70 561.21 1064.95 561.99 C 1037.63 563.09 1010.28 562.69 982.95 562.86 C 982.81 454.57 982.65 346.28 982.69 237.98 C 982.77 201.01 982.52 164.04 983.00 127.08 M 1064.02 324.92 C 1048.73 325.88 1033.40 326.27 1018.15 327.75 C 1016.83 341.11 1017.48 354.58 1017.22 367.98 C 1017.19 409.99 1017.10 452.00 1017.33 494.01 C 1017.49 505.27 1017.18 516.57 1018.08 527.81 C 1023.36 528.61 1028.72 528.45 1034.04 528.56 C 1046.34 528.60 1058.66 528.73 1070.95 528.07 C 1076.28 527.63 1081.91 527.32 1086.70 524.68 C 1091.67 521.68 1095.16 516.54 1096.61 510.96 C 1099.09 501.83 1099.54 492.32 1100.02 482.92 C 1100.88 460.30 1100.80 437.65 1100.90 415.01 C 1101.02 384.38 1100.96 353.75 1100.96 323.12 C 1088.61 322.89 1076.34 324.46 1064.02 324.92 Z"
       id="path37" />
    <path
       fill="#000000"
       opacity="1.00"
       d=" M 775.82 302.86 C 779.22 296.73 786.33 293.78 793.11 293.85 C 817.72 293.16 842.35 293.44 866.96 293.98 C 878.32 294.35 889.72 294.55 901.01 295.97 C 905.26 296.65 910.29 297.15 913.02 300.95 C 916.52 305.76 917.34 311.85 918.27 317.57 C 920.59 333.21 920.06 349.06 920.43 364.82 C 921.15 431.21 921.16 497.61 921.47 564.00 L 919.93 564.00 C 909.95 562.68 899.75 563.32 889.92 560.99 C 886.08 560.21 883.04 557.16 879.06 556.99 C 869.66 556.35 860.27 557.43 851.01 558.96 C 831.48 562.00 811.61 562.78 791.90 561.46 C 785.15 560.73 777.37 559.78 772.83 554.12 C 768.59 548.37 768.35 540.84 767.92 533.99 C 766.84 504.01 766.24 473.97 767.47 443.98 C 767.97 436.63 768.01 429.13 770.07 422.01 C 772.17 414.48 778.23 407.91 785.97 406.13 C 792.20 404.60 798.65 404.23 805.03 403.75 C 831.41 402.11 857.85 402.09 884.24 400.81 C 884.26 374.91 883.45 348.97 881.57 323.14 C 855.61 323.13 829.64 323.13 803.68 323.14 C 803.66 337.64 803.68 352.13 803.66 366.63 C 792.04 366.64 780.43 366.63 768.81 366.63 C 768.94 357.08 769.11 347.52 769.34 337.97 C 769.57 326.09 769.70 313.45 775.82 302.86 M 804.04 431.63 C 803.45 463.68 803.75 495.74 803.68 527.80 C 829.94 527.79 856.20 527.81 882.47 527.79 C 882.52 497.31 883.28 466.82 882.70 436.34 C 876.95 434.71 870.93 434.61 865.03 434.10 C 844.72 432.94 824.39 431.75 804.04 431.63 Z"
       id="path39" />
  </g>
</svg>
